<svg width="207" height="44" viewBox="0 0 207 44" fill="none" xmlns="http://www.w3.org/2000/svg">
<path d="M206.625 35.1943C206.583 36.318 206.182 37.2739 205.422 38.0622C204.672 38.8337 203.849 39.2194 202.953 39.2194H191.078C188.797 39.2194 187.656 38.0957 187.656 35.8484C187.656 35.6471 187.667 35.4291 187.688 35.1943C187.771 34.188 188.104 33.4082 188.688 32.8547C189.188 32.3684 189.76 32.1336 190.406 32.1504C191.531 32.2007 193.057 33.1985 194.984 35.144C195.536 34.0371 195.812 32.9134 195.812 31.773C195.812 31.2028 195.589 29.903 195.141 27.8737L193.375 30.4648H190.25L194.406 24.2763C194.219 23.7564 194.089 23.3287 194.016 22.9933C193.88 22.3728 193.807 21.6684 193.797 20.8801L197.641 14.2891C199.37 14.7587 200.234 16.0249 200.234 18.0877C200.234 19.2953 200.01 20.4105 199.562 21.4336C199.948 23.0772 200.339 24.7207 200.734 26.3643C201.214 28.4775 201.453 30.1881 201.453 31.4963C201.453 32.9386 201.099 34.1713 200.391 35.1943H206.625Z" fill="url(#paint0_linear_86_747)"/>
<path d="M187.828 35.1943C187.609 36.4857 187.109 37.5003 186.328 38.2383C185.63 38.8923 184.833 39.2194 183.938 39.2194H175.234C170.172 39.2194 167.641 36.7624 167.641 31.8485C167.641 28.6955 168.505 26.2217 170.234 24.4272C171.724 22.8843 173.495 22.1128 175.547 22.1128H177.812C179.135 22.1128 180.297 22.4398 181.297 23.0939C182.63 23.966 183.328 25.2909 183.391 27.0687C183.443 28.8632 182.906 30.3558 181.781 31.5466H176.609L178.297 26.1379H175L173.719 32.2006C173.646 32.5528 173.609 32.8715 173.609 33.1566C173.609 34.5151 174.286 35.1943 175.641 35.1943H187.828Z" fill="url(#paint1_linear_86_747)"/>
<path d="M168.219 35.1943C167.917 37.8777 166.734 39.2194 164.672 39.2194H158.328C157.828 39.2194 157.365 38.8924 156.938 38.2383C156.521 37.5675 156.312 36.8128 156.312 35.9742C156.312 35.7059 156.333 35.4459 156.375 35.1943C156.604 33.9533 156.948 32.1504 157.406 29.7856L152.125 36.905C150.792 38.6827 149.651 39.5716 148.703 39.5716C147.286 39.5716 146.578 38.7163 146.578 37.0056C146.578 36.4522 146.656 35.8484 146.812 35.1943L148.062 29.7856L141.844 38.1377C141.312 38.8588 140.651 39.2194 139.859 39.2194H136.672L140.406 22.1128H146.047L144.281 30.163L149.078 23.8235C150.276 22.2302 151.62 21.4336 153.109 21.4336C154.339 21.4336 154.953 22.1967 154.953 23.7229C154.953 24.1589 154.896 24.6369 154.781 25.1568L153.656 30.163L158.328 23.7732C159.464 22.2135 160.724 21.4336 162.109 21.4336C163.422 21.4336 164.078 22.3309 164.078 24.1254C164.078 24.7291 163.995 25.4 163.828 26.1379L161.812 35.1943H168.219Z" fill="url(#paint2_linear_86_747)"/>
<path d="M145.594 22.1128C145.177 24.7962 143.927 26.1379 141.844 26.1379H132.062C132.406 26.5068 132.688 27.1861 132.906 28.1756C133.125 29.1483 133.214 29.9952 133.172 30.7164C133.026 33.5172 132.26 35.7142 130.875 37.3075C129.552 38.8336 127.833 39.6051 125.719 39.6219C123.26 39.6554 121.37 38.8756 120.047 37.2823C118.87 35.8735 118.281 34.0203 118.281 31.7227C118.281 31.2698 118.307 30.817 118.359 30.3642C118.63 27.8318 119.411 25.8444 120.703 24.4021C122.078 22.8759 123.911 22.1128 126.203 22.1128H145.594ZM128.562 26.1379H124.984L123.578 32.578C123.505 32.9134 123.469 33.2321 123.469 33.534C123.469 34.9763 124.302 35.6974 125.969 35.6974C126.167 35.6974 126.339 35.689 126.484 35.6723L128.562 26.1379Z" fill="url(#paint3_linear_86_747)"/>
<path d="M126.75 22.1128C126.458 24.7962 125.307 26.1379 123.297 26.1379H114.047L111.172 39.2194H105.547L108.453 26.1379H103.172C100.214 37.8274 95.5521 43.6805 89.1875 43.6973C87.4688 43.6973 86.0573 43.1522 84.9531 42.0621C83.6198 40.7539 82.9531 38.7917 82.9531 36.1754C82.9531 34.1293 83.3802 32.0665 84.2344 29.9868C86.3906 24.7375 90.3542 22.1128 96.125 22.1128H98.4062L103.234 0H108.844L103.938 22.1128H109.312L113.312 3.82383H118.953L114.922 22.1128H126.75ZM97.5156 26.1379H97.0625C95.0104 26.1379 93.1667 26.9848 91.5312 28.6787C89.6458 30.6241 88.7031 33.1566 88.7031 36.276C88.7031 38.4395 89.3021 39.5212 90.5 39.5212C92 39.5212 93.4844 37.8274 94.9531 34.4396C96.0469 31.9071 96.901 29.1399 97.5156 26.1379Z" fill="url(#paint4_linear_86_747)"/>
<path d="M79.3438 22.1128C79.0521 24.7962 77.901 26.1379 75.8906 26.1379H66.6406L63.7656 39.2194H58.1406L61.0469 26.1379H55.7656C52.8073 37.8274 48.1458 43.6805 41.7812 43.6973C40.0625 43.6973 38.651 43.1522 37.5469 42.0621C36.2135 40.7539 35.5469 38.7917 35.5469 36.1754C35.5469 34.1293 35.974 32.0665 36.8281 29.9868C38.9844 24.7375 42.9479 22.1128 48.7188 22.1128H51L55.8281 0H61.4375L56.5312 22.1128H61.9062L65.9062 3.82383H71.5469L67.5156 22.1128H79.3438ZM50.1094 26.1379H49.6562C47.6042 26.1379 45.7604 26.9848 44.125 28.6787C42.2396 30.6241 41.2969 33.1566 41.2969 36.276C41.2969 38.4395 41.8958 39.5212 43.0938 39.5212C44.5938 39.5212 46.0781 37.8274 47.5469 34.4396C48.6406 31.9071 49.4948 29.1399 50.1094 26.1379Z" fill="url(#paint5_linear_86_747)"/>
<path d="M44.4531 22.1127C43.9219 24.7961 42.651 26.1378 40.6406 26.1378H31.3594L28.4219 39.2193H22.8281L25.7656 26.1378H20.9688C15.7188 36.3346 10.5885 41.4331 5.57812 41.4331C4.11979 41.4331 2.89062 40.997 1.89062 40.1249C0.630208 39.018 0 37.3912 0 35.2445C0 33.4164 0.46875 31.6303 1.40625 29.8861C2.91667 27.0853 5.20312 25.0141 8.26562 23.6724C10.6615 22.6326 13.3073 22.1127 16.2031 22.1127H19.2344L28.7031 3.82373H36.2344L32.2031 22.1127H44.4531ZM29.8906 7.99975L23.0469 22.1127H26.5312L29.8906 7.99975ZM17.125 26.1378C13.2188 26.1378 10.4792 27.0434 8.90625 28.8547C7.60417 30.3641 6.95312 31.9657 6.95312 33.6596C6.95312 35.1019 7.42188 35.8231 8.35938 35.8231C9.65104 35.8231 11.2656 34.6491 13.2031 32.3012C14.901 30.2719 16.2083 28.2174 17.125 26.1378Z" fill="url(#paint6_linear_86_747)"/>
<defs>
<linearGradient id="paint0_linear_86_747" x1="1.125" y1="23.1191" x2="211.623" y2="23.1191" gradientUnits="userSpaceOnUse">
<stop stop-color="#004DEF"/>
<stop offset="1" stop-color="#002C89"/>
</linearGradient>
<linearGradient id="paint1_linear_86_747" x1="1.12499" y1="23.1191" x2="211.623" y2="23.1191" gradientUnits="userSpaceOnUse">
<stop stop-color="#004DEF"/>
<stop offset="1" stop-color="#002C89"/>
</linearGradient>
<linearGradient id="paint2_linear_86_747" x1="1.125" y1="23.1191" x2="211.623" y2="23.1191" gradientUnits="userSpaceOnUse">
<stop stop-color="#004DEF"/>
<stop offset="1" stop-color="#002C89"/>
</linearGradient>
<linearGradient id="paint3_linear_86_747" x1="1.125" y1="23.1191" x2="211.623" y2="23.1191" gradientUnits="userSpaceOnUse">
<stop stop-color="#004DEF"/>
<stop offset="1" stop-color="#002C89"/>
</linearGradient>
<linearGradient id="paint4_linear_86_747" x1="1.125" y1="23.119" x2="211.623" y2="23.119" gradientUnits="userSpaceOnUse">
<stop stop-color="#004DEF"/>
<stop offset="1" stop-color="#002C89"/>
</linearGradient>
<linearGradient id="paint5_linear_86_747" x1="1.125" y1="23.119" x2="211.623" y2="23.119" gradientUnits="userSpaceOnUse">
<stop stop-color="#004DEF"/>
<stop offset="1" stop-color="#002C89"/>
</linearGradient>
<linearGradient id="paint6_linear_86_747" x1="1.125" y1="23.119" x2="211.623" y2="23.119" gradientUnits="userSpaceOnUse">
<stop stop-color="#004DEF"/>
<stop offset="1" stop-color="#002C89"/>
</linearGradient>
</defs>
</svg>
