<svg width="156" height="22" viewBox="0 0 156 22" fill="none" xmlns="http://www.w3.org/2000/svg">
<path d="M33.4961 11.0312C33.0977 12.2812 32.1445 12.9062 30.6367 12.9062H23.6758L21.4727 19H17.2773L19.4805 12.9062H15.8828C11.9453 17.6562 8.09766 20.0312 4.33984 20.0312C3.24609 20.0312 2.32422 19.8281 1.57422 19.4219C0.628906 18.9062 0.15625 18.1484 0.15625 17.1484C0.15625 16.2969 0.507812 15.4648 1.21094 14.6523C2.34375 13.3477 4.05859 12.3828 6.35547 11.7578C8.15234 11.2734 10.1367 11.0312 12.3086 11.0312H14.582L21.6836 2.51172H27.332L24.3086 11.0312H33.4961ZM22.5742 4.45703L17.4414 11.0312H20.0547L22.5742 4.45703ZM13 12.9062C10.0703 12.9062 8.01562 13.3281 6.83594 14.1719C5.85938 14.875 5.37109 15.6211 5.37109 16.4102C5.37109 17.082 5.72266 17.418 6.42578 17.418C7.39453 17.418 8.60547 16.8711 10.0586 15.7773C11.332 14.832 12.3125 13.875 13 12.9062ZM59.6641 11.0312C59.4453 12.2812 58.582 12.9062 57.0742 12.9062H50.1367L47.9805 19H43.7617L45.9414 12.9062H41.9805C39.7617 18.3516 36.2656 21.0781 31.4922 21.0859C30.2031 21.0859 29.1445 20.832 28.3164 20.3242C27.3164 19.7148 26.8164 18.8008 26.8164 17.582C26.8164 16.6289 27.1367 15.668 27.7773 14.6992C29.3945 12.2539 32.3672 11.0312 36.6953 11.0312H38.4062L42.0273 0.730469H46.2344L42.5547 11.0312H46.5859L49.5859 2.51172H53.8164L50.793 11.0312H59.6641ZM37.7383 12.9062H37.3984C35.8594 12.9062 34.4766 13.3008 33.25 14.0898C31.8359 14.9961 31.1289 16.1758 31.1289 17.6289C31.1289 18.6367 31.5781 19.1406 32.4766 19.1406C33.6016 19.1406 34.7148 18.3516 35.8164 16.7734C36.6367 15.5938 37.2773 14.3047 37.7383 12.9062ZM95.2188 11.0312C95 12.2812 94.1367 12.9062 92.6289 12.9062H85.6914L83.5352 19H79.3164L81.4961 12.9062H77.5352C75.3164 18.3516 71.8203 21.0781 67.0469 21.0859C65.7578 21.0859 64.6992 20.832 63.8711 20.3242C62.8711 19.7148 62.3711 18.8008 62.3711 17.582C62.3711 16.6289 62.6914 15.668 63.332 14.6992C64.9492 12.2539 67.9219 11.0312 72.25 11.0312H73.9609L77.582 0.730469H81.7891L78.1094 11.0312H82.1406L85.1406 2.51172H89.3711L86.3477 11.0312H95.2188ZM73.293 12.9062H72.9531C71.4141 12.9062 70.0312 13.3008 68.8047 14.0898C67.3906 14.9961 66.6836 16.1758 66.6836 17.6289C66.6836 18.6367 67.1328 19.1406 68.0312 19.1406C69.1562 19.1406 70.2695 18.3516 71.3711 16.7734C72.1914 15.5938 72.832 14.3047 73.293 12.9062ZM109.352 11.0312C109.039 12.2812 108.102 12.9062 106.539 12.9062H99.2031C99.4609 13.0781 99.6719 13.3945 99.8359 13.8555C100 14.3086 100.066 14.7031 100.035 15.0391C99.9258 16.3438 99.3516 17.3672 98.3125 18.1094C97.3203 18.8203 96.0312 19.1797 94.4453 19.1875C92.6016 19.2031 91.1836 18.8398 90.1914 18.0977C89.3086 17.4414 88.8672 16.5781 88.8672 15.5078C88.8672 15.2969 88.8867 15.0859 88.9258 14.875C89.1289 13.6953 89.7148 12.7695 90.6836 12.0977C91.7148 11.3867 93.0898 11.0312 94.8086 11.0312H109.352ZM96.5781 12.9062H93.8945L92.8398 15.9062C92.7852 16.0625 92.7578 16.2109 92.7578 16.3516C92.7578 17.0234 93.3828 17.3594 94.6328 17.3594C94.7812 17.3594 94.9102 17.3555 95.0195 17.3477L96.5781 12.9062ZM126.32 17.125C126.094 18.375 125.207 19 123.66 19H118.902C118.527 19 118.18 18.8477 117.859 18.543C117.547 18.2305 117.391 17.8789 117.391 17.4883C117.391 17.3633 117.406 17.2422 117.438 17.125C117.609 16.5469 117.867 15.707 118.211 14.6055L114.25 17.9219C113.25 18.75 112.395 19.1641 111.684 19.1641C110.621 19.1641 110.09 18.7656 110.09 17.9688C110.09 17.7109 110.148 17.4297 110.266 17.125L111.203 14.6055L106.539 18.4961C106.141 18.832 105.645 19 105.051 19H102.66L105.461 11.0312H109.691L108.367 14.7812L111.965 11.8281C112.863 11.0859 113.871 10.7148 114.988 10.7148C115.91 10.7148 116.371 11.0703 116.371 11.7812C116.371 11.9844 116.328 12.207 116.242 12.4492L115.398 14.7812L118.902 11.8047C119.754 11.0781 120.699 10.7148 121.738 10.7148C122.723 10.7148 123.215 11.1328 123.215 11.9688C123.215 12.25 123.152 12.5625 123.027 12.9062L121.516 17.125H126.32ZM141.027 17.125C140.863 17.7266 140.488 18.1992 139.902 18.543C139.379 18.8477 138.781 19 138.109 19H131.582C127.785 19 125.887 17.8555 125.887 15.5664C125.887 14.0977 126.535 12.9453 127.832 12.1094C128.949 11.3906 130.277 11.0312 131.816 11.0312H133.516C134.508 11.0312 135.379 11.1836 136.129 11.4883C137.129 11.8945 137.652 12.5117 137.699 13.3398C137.738 14.1758 137.336 14.8711 136.492 15.4258H132.613L133.879 12.9062H131.406L130.445 15.7305C130.391 15.8945 130.363 16.043 130.363 16.1758C130.363 16.8086 130.871 17.125 131.887 17.125H141.027ZM155.125 17.125C155.094 17.6484 154.793 18.0938 154.223 18.4609C153.66 18.8203 153.043 19 152.371 19H143.465C141.754 19 140.898 18.4766 140.898 17.4297C140.898 17.3359 140.906 17.2344 140.922 17.125C140.984 16.6562 141.234 16.293 141.672 16.0352C142.047 15.8086 142.477 15.6992 142.961 15.707C143.805 15.7305 144.949 16.1953 146.395 17.1016C146.809 16.5859 147.016 16.0625 147.016 15.5312C147.016 15.2656 146.848 14.6602 146.512 13.7148L145.188 14.9219H142.844L145.961 12.0391C145.82 11.7969 145.723 11.5977 145.668 11.4414C145.566 11.1523 145.512 10.8242 145.504 10.457L148.387 7.38672C149.684 7.60547 150.332 8.19531 150.332 9.15625C150.332 9.71875 150.164 10.2383 149.828 10.7148C150.117 11.4805 150.41 12.2461 150.707 13.0117C151.066 13.9961 151.246 14.793 151.246 15.4023C151.246 16.0742 150.98 16.6484 150.449 17.125H155.125Z" fill="black"/>
</svg>
